HIERARCHY
ROOT Hip
{
	OFFSET 0.00 0.00 0.00
	CHANNELS 6 Xposition Yposition Zposition Xrotation Yrotation Zrotation
	JOINT ShoulderCenter
	{
		OFFSET 0.23 17.40 -1.97
		CHANNELS 3 Xrotation Yrotation Zrotation
		JOINT ShoulderLeft
		{
			OFFSET -19.12 0.06 -1.85
			CHANNELS 3 Xrotation Yrotation Zrotation
			JOINT ElbowLeft
			{
				OFFSET -10.14 -23.46 0.36
				CHANNELS 3 Xrotation Yrotation Zrotation
				JOINT WristLeft
				{
					OFFSET -8.19 -20.70 -9.08
					CHANNELS 3 Xrotation Yrotation Zrotation
					End Site
					{
						OFFSET 0.0 0.0 0.0
					}
				}
			}
		}
		JOINT ShoulderRight
		{
			OFFSET 19.13 -0.05 1.84
			CHANNELS 3 Xrotation Yrotation Zrotation
			JOINT ElbowRight
			{
				OFFSET 11.08 -21.51 6.17
				CHANNELS 3 Xrotation Yrotation Zrotation
				JOINT WristRight
				{
					OFFSET 20.13 -25.88 -15.07
					CHANNELS 3 Xrotation Yrotation Zrotation
					End Site
					{
						OFFSET 0.0 0.0 0.0
					}
				}
			}
		}
	}
	JOINT HipLeft
	{
		OFFSET -15.19 -17.36 0.53
		CHANNELS 3 Xrotation Yrotation Zrotation
		JOINT KneeLeft
		{
			OFFSET 6.06 -46.73 8.93
			CHANNELS 3 Xrotation Yrotation Zrotation
			JOINT FootLeft
			{
				OFFSET -2.96 -47.41 0.83
				CHANNELS 3 Xrotation Yrotation Zrotation
				End Site
				{
					OFFSET 0.0 0.0 0.0
				}
			}
		}
	}
	JOINT HipRight
	{
		OFFSET 14.71 -17.44 3.42
		CHANNELS 3 Xrotation Yrotation Zrotation
		JOINT KneeRight
		{
			OFFSET 1.86 -48.71 1.44
			CHANNELS 3 Xrotation Yrotation Zrotation
			JOINT FootRight
			{
				OFFSET 4.21 -50.55 15.28
				CHANNELS 3 Xrotation Yrotation Zrotation
				End Site
				{
					OFFSET 0.0 0.0 0.0
				}
			}
		}
	}
}
MOTION
Frames: 19
Frame Time: 0.1
-16.47 40.41 181.57 -8.13 22.34 -1.61 -14.76 25.77 -3.39 2.28 -51.31 -1.09 10.34 -22.17 -2.03 0.00 0.00 0.00 -12.25 53.15 -6.15 8.92 32.95 2.64 0.00 0.00 0.00 -8.31 -8.02 0.58 -5.92 1.88 -0.10 0.00 0.00 0.00 -4.08 14.03 -0.50 -9.54 3.45 -0.29 0.00 0.00 0.00
-16.08 41.27 180.86 -7.52 20.48 -1.36 -16.39 26.41 -3.87 0.03 -51.28 -0.01 11.92 -20.29 -2.14 0.00 0.00 0.00 -12.84 52.55 -6.36 8.28 32.75 2.44 0.00 0.00 0.00 -8.11 -8.29 0.59 -6.77 0.76 -0.05 0.00 0.00 0.00 -3.95 13.52 -0.47 -9.95 3.68 -0.32 0.00 0.00 0.00
-15.30 41.56 180.43 -6.87 18.83 -1.14 -15.40 26.34 -3.62 -1.41 -51.31 0.68 11.72 -22.17 -2.30 0.00 0.00 0.00 -13.81 50.92 -6.60 7.66 32.57 2.24 0.00 0.00 0.00 -8.02 -8.98 0.63 -7.45 0.27 -0.02 0.00 0.00 0.00 -4.48 13.10 -0.51 -10.05 3.93 -0.35 0.00 0.00 0.00
-15.12 41.59 180.27 -6.08 18.52 -0.99 -15.95 26.18 -3.73 -1.62 -50.99 0.77 12.15 -22.38 -2.41 0.00 0.00 0.00 -14.07 50.37 -6.64 7.67 32.85 2.26 0.00 0.00 0.00 -6.64 -10.23 0.59 -7.96 0.65 -0.05 0.00 0.00 0.00 -4.59 12.71 -0.51 -10.32 4.06 -0.37 0.00 0.00 0.00
-14.41 41.33 180.43 -5.43 17.86 -0.85 -15.52 26.57 -3.69 -1.73 -52.80 0.86 12.22 -23.55 -2.56 0.00 0.00 0.00 -13.53 49.72 -6.29 8.18 32.72 2.41 0.00 0.00 0.00 -4.04 -11.16 0.39 -8.30 0.59 -0.04 0.00 0.00 0.00 -4.72 12.37 -0.51 -10.55 3.75 -0.35 0.00 0.00 0.00
-14.26 41.14 180.34 -4.38 17.54 -0.68 -14.98 26.51 -3.55 -1.39 -53.31 0.70 12.57 -23.74 -2.65 0.00 0.00 0.00 -13.57 49.71 -6.31 8.31 33.06 2.47 0.00 0.00 0.00 -4.42 -11.34 0.44 -8.80 1.04 -0.08 0.00 0.00 0.00 -6.65 13.88 -0.81 -10.92 3.37 -0.32 0.00 0.00 0.00
-14.41 41.01 179.98 -4.36 17.82 -0.68 -14.65 26.86 -3.52 0.31 -52.92 -0.15 13.07 -22.48 -2.61 0.00 0.00 0.00 -13.99 50.06 -6.56 7.44 33.77 2.26 0.00 0.00 0.00 -4.69 -9.28 0.38 -8.66 1.21 -0.09 0.00 0.00 0.00 -6.38 13.96 -0.78 -10.80 3.28 -0.31 0.00 0.00 0.00
-14.34 40.88 179.58 -4.91 18.05 -0.78 -14.26 27.54 -3.51 -0.79 -52.90 0.40 13.43 -21.67 -2.58 0.00 0.00 0.00 -14.57 50.35 -6.87 7.34 33.59 2.22 0.00 0.00 0.00 -3.98 -9.94 0.35 -8.57 1.17 -0.09 0.00 0.00 0.00 -5.87 13.97 -0.72 -10.58 3.19 -0.30 0.00 0.00 0.00
-14.25 40.74 179.28 -5.38 17.94 -0.85 -14.22 27.94 -3.56 -0.70 -51.76 0.34 13.31 -21.63 -2.55 0.00 0.00 0.00 -13.56 52.13 -6.66 7.25 34.33 2.24 0.00 0.00 0.00 -3.52 -10.44 0.32 -8.50 0.71 -0.05 0.00 0.00 0.00 -5.44 13.86 -0.66 -10.28 3.14 -0.28 0.00 0.00 0.00
-14.02 40.65 179.05 -5.28 18.23 -0.85 -15.27 26.75 -3.65 -1.65 -52.13 0.81 13.56 -21.32 -2.56 0.00 0.00 0.00 -13.70 52.75 -6.82 8.14 34.71 2.55 0.00 0.00 0.00 -3.81 -10.48 0.35 -8.40 0.77 -0.06 0.00 0.00 0.00 -4.83 13.93 -0.59 -10.00 2.73 -0.24 0.00 0.00 0.00
-13.80 40.66 178.84 -4.78 18.77 -0.79 -14.90 27.63 -3.68 -1.76 -51.27 0.85 13.39 -21.17 -2.51 0.00 0.00 0.00 -14.64 53.10 -7.34 7.86 35.11 2.49 0.00 0.00 0.00 -4.25 -10.54 0.39 -8.74 -1.19 0.09 0.00 0.00 0.00 -3.78 13.97 -0.46 -9.79 2.42 -0.21 0.00 0.00 0.00
-13.34 40.75 178.36 -4.92 18.19 -0.79 -14.18 27.24 -3.45 -2.60 -52.22 1.27 13.67 -21.36 -2.59 0.00 0.00 0.00 -10.90 53.79 -5.54 7.79 34.67 2.44 0.00 0.00 0.00 -3.96 -8.82 0.31 -8.51 -0.87 0.06 0.00 0.00 0.00 -1.97 13.14 -0.23 -9.44 2.38 -0.20 0.00 0.00 0.00
-13.21 40.71 178.41 -3.27 18.28 -0.53 -14.55 26.83 -3.49 -2.56 -52.03 1.25 13.51 -21.06 -2.52 0.00 0.00 0.00 -8.54 54.68 -4.42 7.85 35.37 2.51 0.00 0.00 0.00 -3.44 -8.13 0.24 -8.60 -0.92 0.07 0.00 0.00 0.00 -3.03 13.19 -0.35 -9.86 2.53 -0.22 0.00 0.00 0.00
-12.96 40.74 178.15 -3.04 18.37 -0.49 -14.45 27.52 -3.56 -2.54 -52.12 1.24 13.38 -21.46 -2.55 0.00 0.00 0.00 -8.07 54.70 -4.18 7.85 35.17 2.49 0.00 0.00 0.00 -3.53 -8.41 0.26 -8.62 -1.08 0.08 0.00 0.00 0.00 -3.13 12.97 -0.36 -9.64 2.40 -0.20 0.00 0.00 0.00
-12.34 40.60 177.87 -3.71 17.85 -0.58 -14.21 26.85 -3.41 -2.78 -53.10 1.39 13.11 -22.44 -2.61 0.00 0.00 0.00 -8.03 53.92 -4.09 7.30 35.39 2.33 0.00 0.00 0.00 -4.42 -9.24 0.36 -8.38 -0.58 0.04 0.00 0.00 0.00 -2.90 12.77 -0.33 -9.64 2.09 -0.18 0.00 0.00 0.00
-12.35 40.59 177.76 -4.25 17.87 -0.67 -16.41 26.89 -3.95 -1.63 -52.33 0.80 13.25 -22.13 -2.60 0.00 0.00 0.00 -8.88 54.07 -4.54 8.13 34.81 2.55 0.00 0.00 0.00 -4.30 -8.91 0.33 -8.18 0.00 0.00 0.00 0.00 0.00 -2.70 13.17 -0.31 -9.37 2.13 -0.17 0.00 0.00 0.00
-12.30 40.71 177.76 -4.29 17.86 -0.67 -15.90 27.24 -3.88 -1.45 -52.44 0.71 13.81 -21.57 -2.64 0.00 0.00 0.00 -9.73 53.66 -4.93 8.15 34.68 2.55 0.00 0.00 0.00 -4.20 -8.80 0.32 -7.87 0.41 -0.03 0.00 0.00 0.00 -2.85 13.34 -0.33 -9.16 2.13 -0.17 0.00 0.00 0.00
-12.31 40.87 177.74 -4.26 17.56 -0.66 -15.60 27.18 -3.79 -1.60 -52.69 0.79 14.20 -21.17 -2.67 0.00 0.00 0.00 -9.18 53.67 -4.65 7.86 35.02 2.48 0.00 0.00 0.00 -4.19 -8.81 0.32 -7.82 0.71 -0.05 0.00 0.00 0.00 -2.88 13.45 -0.34 -8.98 2.79 -0.22 0.00 0.00 0.00
-12.07 40.93 177.47 -4.55 16.99 -0.68 -14.97 26.92 -3.60 -2.43 -53.29 1.22 13.57 -21.70 -2.61 0.00 0.00 0.00 -9.19 53.11 -4.60 8.22 34.23 2.54 0.00 0.00 0.00 -4.15 -8.80 0.32 -7.81 0.93 -0.06 0.00 0.00 0.00 -2.98 13.94 -0.36 -8.84 3.32 -0.26 0.00 0.00 0.00
